<?xml version="1.0" encoding="UTF-8" standalone="no"?><svg xmlns="http://www.w3.org/2000/svg" xmlns:xlink="http://www.w3.org/1999/xlink" contentScriptType="application/ecmascript" contentStyleType="text/css" height="952px" preserveAspectRatio="none" style="width:1783px;height:952px;" version="1.1" viewBox="0 0 1783 952" width="1783px" zoomAndPan="magnify"><defs/><g><ellipse cx="63.6274" cy="778.742" fill="#F8F8F8" rx="25.6274" ry="13.242" style="stroke: #383838; stroke-width: 0.5;"/><text fill="#000000" font-family="Tahoma, sans-serif" font-size="12" font-weight="bold" lengthAdjust="spacingAndGlyphs" textLength="32" x="47.6274" y="782.4842">_app</text><ellipse cx="63.271" cy="826.3542" fill="#F8F8F8" rx="54.771" ry="13.3542" style="stroke: #383838; stroke-width: 0.5;"/><text fill="#000000" font-family="Tahoma, sans-serif" font-size="12" font-weight="bold" lengthAdjust="spacingAndGlyphs" textLength="74" x="26.271" y="830.0964">_document</text><ellipse cx="939.7046" cy="483.742" fill="#F8F8F8" rx="53.2046" ry="13.242" style="stroke: #383838; stroke-width: 0.5;"/><text fill="#000000" font-family="Tahoma, sans-serif" font-size="12" font-weight="bold" lengthAdjust="spacingAndGlyphs" textLength="71" x="904.2046" y="487.4842">api/socket</text><ellipse cx="63.7013" cy="875.4403" fill="#F8F8F8" rx="57.7013" ry="13.9403" style="stroke: #383838; stroke-width: 0.5;"/><text fill="#000000" font-family="Tahoma, sans-serif" font-size="12" font-weight="bold" lengthAdjust="spacingAndGlyphs" textLength="82" x="22.7013" y="879.1824">babel.config</text><ellipse cx="1282.2548" cy="341.742" fill="#F8F8F8" rx="48.2548" ry="13.242" style="stroke: #383838; stroke-width: 0.5;"/><text fill="#000000" font-family="Tahoma, sans-serif" font-size="12" lengthAdjust="spacingAndGlyphs" textLength="64" x="1250.2548" y="345.4842">get_cookie</text><ellipse cx="63.3345" cy="923.742" fill="#F8F8F8" rx="26.3345" ry="13.242" style="stroke: #383838; stroke-width: 0.5;"/><text fill="#000000" font-family="Tahoma, sans-serif" font-size="12" font-weight="bold" lengthAdjust="spacingAndGlyphs" textLength="33" x="46.8345" y="927.4842">hello</text><ellipse cx="1440.3051" cy="532.742" fill="#F8F8F8" rx="43.3051" ry="13.242" style="stroke: #383838; stroke-width: 0.5;"/><text fill="#000000" font-family="Tahoma, sans-serif" font-size="12" font-weight="bold" lengthAdjust="spacingAndGlyphs" textLength="57" x="1411.8051" y="536.4842">instance</text><ellipse cx="217.9117" cy="778.742" fill="#F8F8F8" rx="53.9117" ry="13.242" style="stroke: #383838; stroke-width: 0.5;"/><text fill="#000000" font-family="Tahoma, sans-serif" font-size="12" font-weight="bold" lengthAdjust="spacingAndGlyphs" textLength="72" x="181.9117" y="782.4842">jest.config</text><ellipse cx="217.8762" cy="825.742" fill="#F8F8F8" rx="50.3762" ry="13.242" style="stroke: #383838; stroke-width: 0.5;"/><text fill="#000000" font-family="Tahoma, sans-serif" font-size="12" font-weight="bold" lengthAdjust="spacingAndGlyphs" textLength="67" x="184.3762" y="829.4842">jest.setup</text><ellipse cx="63.7487" cy="77.742" fill="#F8F8F8" rx="27.7487" ry="13.242" style="stroke: #383838; stroke-width: 0.5;"/><text fill="#000000" font-family="Tahoma, sans-serif" font-size="12" font-weight="bold" lengthAdjust="spacingAndGlyphs" textLength="35" x="46.2487" y="81.4842">letter</text><ellipse cx="394.7284" cy="23.4457" fill="#F8F8F8" rx="62.7284" ry="14.9457" style="stroke: #383838; stroke-width: 0.5;"/><text fill="#000000" font-family="Tahoma, sans-serif" font-size="12" lengthAdjust="spacingAndGlyphs" textLength="95" x="347.2284" y="27.1879">letter_composer</text><ellipse cx="572.9558" cy="189.2912" fill="#F8F8F8" rx="56.9558" ry="13.7912" style="stroke: #383838; stroke-width: 0.5;"/><text fill="#000000" font-family="Tahoma, sans-serif" font-size="12" lengthAdjust="spacingAndGlyphs" textLength="80" x="532.9558" y="193.0334">letter_content</text><ellipse cx="394.6295" cy="187.4259" fill="#F8F8F8" rx="55.1295" ry="13.4259" style="stroke: #383838; stroke-width: 0.5;"/><text fill="#000000" font-family="Tahoma, sans-serif" font-size="12" lengthAdjust="spacingAndGlyphs" textLength="75" x="357.1295" y="191.1681">letter_header</text><ellipse cx="736.8309" cy="143.2662" fill="#F8F8F8" rx="64.3309" ry="15.2662" style="stroke: #383838; stroke-width: 0.5;"/><text fill="#000000" font-family="Tahoma, sans-serif" font-size="12" lengthAdjust="spacingAndGlyphs" textLength="99" x="687.3309" y="147.0084">letter_header.css</text><ellipse cx="394.2548" cy="278.742" fill="#F8F8F8" rx="48.2548" ry="13.242" style="stroke: #383838; stroke-width: 0.5;"/><text fill="#000000" font-family="Tahoma, sans-serif" font-size="12" lengthAdjust="spacingAndGlyphs" textLength="64" x="362.2548" y="282.4842">letter_main</text><!--MD5=[e4b46a5ca2e95e6433da45ffaa84a6e9]
entity _letter_main_css--><rect fill="#F8F8F8" height="34.4844" rx="3" ry="3" style="stroke: #000000; stroke-width: 0.5;" width="108" x="683" y="212.5"/><text fill="#000000" font-family="Tahoma, sans-serif" font-size="12" lengthAdjust="spacingAndGlyphs" textLength="88" x="693" y="234.5059">letter_main.css</text><ellipse cx="63.6295" cy="278.4259" fill="#F8F8F8" rx="55.1295" ry="13.4259" style="stroke: #383838; stroke-width: 0.5;"/><text fill="#000000" font-family="Tahoma, sans-serif" font-size="12" font-weight="bold" lengthAdjust="spacingAndGlyphs" textLength="75" x="26.1295" y="282.1681">letter_page</text><ellipse cx="1134.7013" cy="434.4403" fill="#F8F8F8" rx="57.7013" ry="13.9403" style="stroke: #383838; stroke-width: 0.5;"/><text fill="#000000" font-family="Tahoma, sans-serif" font-size="12" lengthAdjust="spacingAndGlyphs" textLength="82" x="1093.7013" y="438.1824">letter_provider</text><ellipse cx="63.3345" cy="684.742" fill="#F8F8F8" rx="26.3345" ry="13.242" style="stroke: #383838; stroke-width: 0.5;"/><text fill="#000000" font-family="Tahoma, sans-serif" font-size="12" font-weight="bold" lengthAdjust="spacingAndGlyphs" textLength="33" x="46.8345" y="688.4842">login</text><ellipse cx="394.3406" cy="731.742" fill="#F8F8F8" rx="46.8406" ry="13.242" style="stroke: #383838; stroke-width: 0.5;"/><text fill="#000000" font-family="Tahoma, sans-serif" font-size="12" lengthAdjust="spacingAndGlyphs" textLength="62" x="363.3406" y="735.4842">login_form</text><ellipse cx="737.2159" cy="708.7432" fill="#F8F8F8" rx="59.2159" ry="14.2432" style="stroke: #383838; stroke-width: 0.5;"/><text fill="#000000" font-family="Tahoma, sans-serif" font-size="12" lengthAdjust="spacingAndGlyphs" textLength="86" x="694.2159" y="712.4854">login_form.css</text><ellipse cx="1440.7193" cy="744.742" fill="#F8F8F8" rx="44.7193" ry="13.242" style="stroke: #383838; stroke-width: 0.5;"/><text fill="#000000" font-family="Tahoma, sans-serif" font-size="12" lengthAdjust="spacingAndGlyphs" textLength="59" x="1411.2193" y="748.4842">loginAxios</text><!--MD5=[a7e7f0d808a9a460af8f379f8baeb674]
entity _long_polling--><rect fill="#F8F8F8" height="34.4844" rx="3" ry="3" style="stroke: #000000; stroke-width: 0.5;" width="102" x="167" y="859.5"/><text fill="#000000" font-family="Tahoma, sans-serif" font-size="12" font-weight="bold" lengthAdjust="spacingAndGlyphs" textLength="82" x="177" y="881.5059">long_polling</text><ellipse cx="218.1295" cy="928.4259" fill="#F8F8F8" rx="55.1295" ry="13.4259" style="stroke: #383838; stroke-width: 0.5;"/><text fill="#000000" font-family="Tahoma, sans-serif" font-size="12" font-weight="bold" lengthAdjust="spacingAndGlyphs" textLength="75" x="180.6295" y="932.1681">middleware</text><ellipse cx="394.2904" cy="778.742" fill="#F8F8F8" rx="51.7904" ry="13.242" style="stroke: #383838; stroke-width: 0.5;"/><text fill="#000000" font-family="Tahoma, sans-serif" font-size="12" font-weight="bold" lengthAdjust="spacingAndGlyphs" textLength="69" x="359.7904" y="782.4842">next-env.d</text><ellipse cx="63.2843" cy="731.742" fill="#F8F8F8" rx="31.2843" ry="13.242" style="stroke: #383838; stroke-width: 0.5;"/><text fill="#000000" font-family="Tahoma, sans-serif" font-size="12" font-weight="bold" lengthAdjust="spacingAndGlyphs" textLength="40" x="43.2843" y="735.4842">pages</text><ellipse cx="1440.4264" cy="797.742" fill="#F8F8F8" rx="45.4264" ry="13.242" style="stroke: #383838; stroke-width: 0.5;"/><text fill="#000000" font-family="Tahoma, sans-serif" font-size="12" lengthAdjust="spacingAndGlyphs" textLength="60" x="1410.4264" y="801.4842">path.enum</text><ellipse cx="394.5991" cy="77.6198" fill="#F8F8F8" rx="76.0991" ry="17.6198" style="stroke: #383838; stroke-width: 0.5;"/><text fill="#000000" font-family="Tahoma, sans-serif" font-size="12" lengthAdjust="spacingAndGlyphs" textLength="127" x="331.0991" y="81.362">received_letter_viewer</text><ellipse cx="394.5995" cy="134.3199" fill="#F8F8F8" rx="79.5995" ry="18.3199" style="stroke: #383838; stroke-width: 0.5;"/><text fill="#000000" font-family="Tahoma, sans-serif" font-size="12" lengthAdjust="spacingAndGlyphs" textLength="135" x="327.0995" y="138.0621">received_letters_button</text><ellipse cx="63.5624" cy="601.742" fill="#F8F8F8" rx="39.0624" ry="13.242" style="stroke: #383838; stroke-width: 0.5;"/><text fill="#000000" font-family="Tahoma, sans-serif" font-size="12" font-weight="bold" lengthAdjust="spacingAndGlyphs" textLength="51" x="38.0624" y="605.4842">register</text><ellipse cx="394.3534" cy="601.5707" fill="#F8F8F8" rx="55.8534" ry="13.5707" style="stroke: #383838; stroke-width: 0.5;"/><text fill="#000000" font-family="Tahoma, sans-serif" font-size="12" lengthAdjust="spacingAndGlyphs" textLength="77" x="355.8534" y="605.3129">register_form</text><ellipse cx="737.1408" cy="577.4282" fill="#F8F8F8" rx="65.1408" ry="15.4282" style="stroke: #383838; stroke-width: 0.5;"/><text fill="#000000" font-family="Tahoma, sans-serif" font-size="12" lengthAdjust="spacingAndGlyphs" textLength="101" x="686.6408" y="581.1704">register_form.css</text><ellipse cx="1440.271" cy="633.3542" fill="#F8F8F8" rx="54.771" ry="13.3542" style="stroke: #383838; stroke-width: 0.5;"/><text fill="#000000" font-family="Tahoma, sans-serif" font-size="12" lengthAdjust="spacingAndGlyphs" textLength="74" x="1403.271" y="637.0964">registerAxios</text><ellipse cx="1704.0172" cy="558.5034" fill="#F8F8F8" rx="68.0172" ry="16.0034" style="stroke: #383838; stroke-width: 0.5;"/><text fill="#000000" font-family="Tahoma, sans-serif" font-size="12" lengthAdjust="spacingAndGlyphs" textLength="108" x="1650.0172" y="562.2456">request_port.enum</text><ellipse cx="394.2601" cy="827.552" fill="#F8F8F8" rx="60.7601" ry="14.552" style="stroke: #383838; stroke-width: 0.5;"/><text fill="#000000" font-family="Tahoma, sans-serif" font-size="12" font-weight="bold" lengthAdjust="spacingAndGlyphs" textLength="90" x="349.2601" y="831.2942">socket_client</text><!--MD5=[cbe85a5c7a0323f21c1310da5cbb74be]
entity _socket_context--><rect fill="#F8F8F8" height="34.4844" rx="3" ry="3" style="stroke: #000000; stroke-width: 0.5;" width="109" x="1386" y="369.5"/><text fill="#000000" font-family="Tahoma, sans-serif" font-size="12" lengthAdjust="spacingAndGlyphs" textLength="89" x="1396" y="391.5059">socket_context</text><ellipse cx="1440.7284" cy="483.4457" fill="#F8F8F8" rx="62.7284" ry="14.9457" style="stroke: #383838; stroke-width: 0.5;"/><text fill="#000000" font-family="Tahoma, sans-serif" font-size="12" lengthAdjust="spacingAndGlyphs" textLength="95" x="1393.2284" y="487.1879">socket_instance</text><ellipse cx="394.6268" cy="878.5254" fill="#F8F8F8" rx="63.1268" ry="15.0254" style="stroke: #383838; stroke-width: 0.5;"/><text fill="#000000" font-family="Tahoma, sans-serif" font-size="12" font-weight="bold" lengthAdjust="spacingAndGlyphs" textLength="96" x="346.6268" y="882.2675">socket/socket</text><ellipse cx="939.7352" cy="326.347" fill="#F8F8F8" rx="64.7352" ry="15.347" style="stroke: #383838; stroke-width: 0.5;"/><text fill="#000000" font-family="Tahoma, sans-serif" font-size="12" lengthAdjust="spacingAndGlyphs" textLength="100" x="889.7352" y="330.0892">use_letter_hooks</text><ellipse cx="939.3309" cy="754.2662" fill="#F8F8F8" rx="64.3309" ry="15.2662" style="stroke: #383838; stroke-width: 0.5;"/><text fill="#000000" font-family="Tahoma, sans-serif" font-size="12" lengthAdjust="spacingAndGlyphs" textLength="99" x="889.8309" y="758.0084">use_login_hooks</text><ellipse cx="939.5295" cy="625.5059" fill="#F8F8F8" rx="70.5295" ry="16.5059" style="stroke: #383838; stroke-width: 0.5;"/><text fill="#000000" font-family="Tahoma, sans-serif" font-size="12" lengthAdjust="spacingAndGlyphs" textLength="114" x="882.5295" y="629.2481">use_register_hooks</text><ellipse cx="939.3917" cy="384.4783" fill="#F8F8F8" rx="95.3917" ry="21.4783" style="stroke: #383838; stroke-width: 0.5;"/><text fill="#000000" font-family="Tahoma, sans-serif" font-size="12" lengthAdjust="spacingAndGlyphs" textLength="170" x="854.3917" y="388.2205">use_socket_messages_hook</text><ellipse cx="1440.6335" cy="686.742" fill="#F8F8F8" rx="46.1335" ry="13.242" style="stroke: #383838; stroke-width: 0.5;"/><text fill="#000000" font-family="Tahoma, sans-serif" font-size="12" lengthAdjust="spacingAndGlyphs" textLength="61" x="1410.1335" y="690.4842">validate_id</text><ellipse cx="1440.6025" cy="582.4205" fill="#F8F8F8" rx="67.6025" ry="15.9205" style="stroke: #383838; stroke-width: 0.5;"/><text fill="#000000" font-family="Tahoma, sans-serif" font-size="12" lengthAdjust="spacingAndGlyphs" textLength="107" x="1387.1025" y="586.1627">validate_password</text><!--MD5=[bca6267ccbbc729772306d2ee7c1fed5]
link <b>api/socket</b> to socket_instance--><path d="M992.959,483.5 C1084.25,483.5 1272.18,483.5 1372.66,483.5 " fill="none" id="&lt;b&gt;api/socket&lt;/b&gt;-&gt;socket_instance" style="stroke: #000000; stroke-width: 1.0;"/><polygon fill="#000000" points="1377.68,483.5,1368.68,479.5,1372.68,483.5,1368.68,487.5,1377.68,483.5" style="stroke: #000000; stroke-width: 1.0;"/><!--MD5=[482e2514dbb8af7095de6e434012cbd2]
link <b>instance</b> to request_port.enum--><path d="M1482.07,536.534 C1523.04,540.608 1587.05,546.971 1635.64,551.803 " fill="none" id="&lt;b&gt;instance&lt;/b&gt;-&gt;request_port.enum" style="stroke: #000000; stroke-width: 1.0;"/><polygon fill="#000000" points="1640.89,552.324,1632.335,547.4442,1635.9151,551.8241,1631.5352,555.4041,1640.89,552.324" style="stroke: #000000; stroke-width: 1.0;"/><!--MD5=[83d5f1eb96d4519793ce185b38397d84]
link <b>letter</b> to letter_composer--><path d="M89.7698,73.352 C142.448,64.706 265.098,44.575 337.398,32.708 " fill="none" id="&lt;b&gt;letter&lt;/b&gt;-&gt;letter_composer" style="stroke: #000000; stroke-width: 1.0;"/><polygon fill="#000000" points="342.515,31.868,332.9859,29.3787,337.581,32.6779,334.2818,37.2731,342.515,31.868" style="stroke: #000000; stroke-width: 1.0;"/><!--MD5=[1e24c35231f506d696436d711e480cd9]
link <b>letter</b> to received_letter_viewer--><path d="M91.1448,77.5 C138.95,77.5 241.035,77.5 313.332,77.5 " fill="none" id="&lt;b&gt;letter&lt;/b&gt;-&gt;received_letter_viewer" style="stroke: #000000; stroke-width: 1.0;"/><polygon fill="#000000" points="318.485,77.5,309.485,73.5,313.485,77.5,309.485,81.5,318.485,77.5" style="stroke: #000000; stroke-width: 1.0;"/><!--MD5=[c6d184e2093c3579543b38098946dd90]
link <b>letter</b> to received_letters_button--><path d="M89.4985,81.831 C139.142,90.432 251.684,109.93 325.031,122.638 " fill="none" id="&lt;b&gt;letter&lt;/b&gt;-&gt;received_letters_button" style="stroke: #000000; stroke-width: 1.0;"/><polygon fill="#000000" points="330.243,123.541,322.0589,118.0619,325.3165,122.6866,320.6918,125.9442,330.243,123.541" style="stroke: #000000; stroke-width: 1.0;"/><!--MD5=[491657b2a27f6e859229e253bcc81933]
link letter_header to letter_header.css--><path d="M436.334,178.723 C459.593,173.97 489.329,168.31 516,164.5 C567.385,157.16 625.9,151.713 669.658,148.208 " fill="none" id="letter_header-&gt;letter_header.css" style="stroke: #000000; stroke-width: 0.5;"/><polygon fill="#000000" points="674.651,147.812,665.3627,144.5368,669.6667,148.2077,665.9958,152.5117,674.651,147.812" style="stroke: #000000; stroke-width: 0.5;"/><!--MD5=[6c71b1266e5818b7da170c162434f1a6]
link letter_main to letter_content--><path d="M418.213,267.047 C449.934,251.052 507.536,222.006 542.529,204.361 " fill="none" id="letter_main-&gt;letter_content" style="stroke: #000000; stroke-width: 0.5;"/><polygon fill="#000000" points="547.101,202.055,537.2639,202.5362,542.6366,204.3065,540.8663,209.6792,547.101,202.055" style="stroke: #000000; stroke-width: 0.5;"/><!--MD5=[82f277431d3e9b34fd4a5595d933eb39]
link letter_main to _letter_main_css--><path d="M437.593,272.442 C497.942,263.758 609.282,247.736 677.575,237.908 " fill="none" id="letter_main-&gt;_letter_main_css" style="stroke: #000000; stroke-width: 0.5;"/><polygon fill="#000000" points="682.823,237.152,673.3454,234.4734,677.8739,237.8635,674.4838,242.392,682.823,237.152" style="stroke: #000000; stroke-width: 0.5;"/><!--MD5=[c670a1032c4e54aec948d96e13906460]
link letter_main to _socket_context--><path d="M443.151,278.5 C508.995,278.5 631.515,278.5 736,278.5 C736,278.5 736,278.5 1135.5,278.5 C1224.1,278.5 1248.77,284.499 1331,317.5 C1361.49,329.738 1392.79,350.713 1413.88,366.332 " fill="none" id="letter_main-&gt;_socket_context" style="stroke: #000000; stroke-width: 0.5;"/><polygon fill="#000000" points="1417.96,369.381,1413.1541,360.7843,1413.9579,366.3837,1408.3585,367.1876,1417.96,369.381" style="stroke: #000000; stroke-width: 0.5;"/><!--MD5=[abdbabdfa7fbc3bc70ad2bb233565aec]
link letter_main to use_letter_hooks--><path d="M437.535,284.673 C460.653,287.919 489.867,291.778 516,294.5 C641.109,307.533 787.587,317.432 871.068,322.569 " fill="none" id="letter_main-&gt;use_letter_hooks" style="stroke: #000000; stroke-width: 0.5;"/><polygon fill="#000000" points="876.475,322.901,867.7364,318.3583,871.4844,322.5953,867.2473,326.3433,876.475,322.901" style="stroke: #000000; stroke-width: 0.5;"/><!--MD5=[e2a0f125a79d11f55286d06c67a1a8c4]
link letter_main to use_socket_messages_hook--><path d="M428.046,287.958 C452.189,294.774 485.981,303.898 516,310.5 C632.59,336.141 768.835,358.687 854.402,371.959 " fill="none" id="letter_main-&gt;use_socket_messages_hook" style="stroke: #000000; stroke-width: 0.5;"/><polygon fill="#000000" points="859.455,372.741,851.1724,367.412,854.5138,371.9765,849.9492,375.3179,859.455,372.741" style="stroke: #000000; stroke-width: 0.5;"/><!--MD5=[747b2eed278051e2e0a546abe57b27b2]
link <b>letter_page</b> to letter_header--><path d="M100.6499,268.501 C162.308,251.447 287.422,216.841 352.341,198.884 " fill="none" id="&lt;b&gt;letter_page&lt;/b&gt;-&gt;letter_header" style="stroke: #000000; stroke-width: 1.0;"/><polygon fill="#000000" points="357.29,197.515,347.5493,196.0591,352.471,198.848,349.6821,203.7696,357.29,197.515" style="stroke: #000000; stroke-width: 1.0;"/><!--MD5=[69efe84123b843075402940130b99984]
link <b>letter_page</b> to letter_main--><path d="M118.828,278.5 C180.338,278.5 279.884,278.5 340.74,278.5 " fill="none" id="&lt;b&gt;letter_page&lt;/b&gt;-&gt;letter_main" style="stroke: #000000; stroke-width: 1.0;"/><polygon fill="#000000" points="345.779,278.5,336.779,274.5,340.779,278.5,336.779,282.5,345.779,278.5" style="stroke: #000000; stroke-width: 1.0;"/><!--MD5=[74f6f96b4a40a49bb8b43e3284db88f1]
link <b>letter_page</b> to letter_provider--><path d="M79.0006,291.593 C122.884,329.806 259.485,438.5 393.5,438.5 C393.5,438.5 393.5,438.5 738,438.5 C856.089,438.5 994.001,436.695 1071.81,435.51 " fill="none" id="&lt;b&gt;letter_page&lt;/b&gt;-&gt;letter_provider" style="stroke: #000000; stroke-width: 1.0;"/><polygon fill="#000000" points="1076.85,435.433,1067.7827,431.5879,1071.8507,435.5187,1067.9199,439.5867,1076.85,435.433" style="stroke: #000000; stroke-width: 1.0;"/><!--MD5=[75e78d1d3180cbfd89923beab6376228]
link letter_provider to _socket_context--><path d="M1183.33,426.947 C1236.73,418.516 1323.18,404.866 1380.68,395.788 " fill="none" id="letter_provider-&gt;_socket_context" style="stroke: #000000; stroke-width: 0.5;"/><polygon fill="#000000" points="1385.8,394.979,1376.2833,392.4428,1380.8621,395.7646,1377.5403,400.3434,1385.8,394.979" style="stroke: #000000; stroke-width: 0.5;"/><!--MD5=[a28ea9bf65bb94ce94eb94cb06a083af]
link <b>login</b> to login_form--><path d="M89.2285,688.033 C144.101,695.872 276.762,714.823 347.416,724.917 " fill="none" id="&lt;b&gt;login&lt;/b&gt;-&gt;login_form" style="stroke: #000000; stroke-width: 1.0;"/><polygon fill="#000000" points="352.393,725.628,344.0491,720.3954,347.4433,724.9209,342.9178,728.315,352.393,725.628" style="stroke: #000000; stroke-width: 1.0;"/><!--MD5=[663661a2e5953b5a16570d993f716fd9]
link login_form to login_form.css--><path d="M440.365,728.47 C500.469,724.41 607.359,717.189 674.809,712.633 " fill="none" id="login_form-&gt;login_form.css" style="stroke: #000000; stroke-width: 0.5;"/><polygon fill="#000000" points="679.999,712.283,670.7498,708.899,675.0104,712.6201,671.2892,716.8808,679.999,712.283" style="stroke: #000000; stroke-width: 0.5;"/><!--MD5=[99f56b6fd42b92ea4e528868019e390c]
link login_form to use_login_hooks--><path d="M441.328,733.441 C536.97,737.492 758.233,746.864 870.513,751.62 " fill="none" id="login_form-&gt;use_login_hooks" style="stroke: #000000; stroke-width: 0.5;"/><polygon fill="#000000" points="875.776,751.843,866.9544,747.4635,870.7805,751.6302,866.6139,755.4563,875.776,751.843" style="stroke: #000000; stroke-width: 0.5;"/><!--MD5=[9a8130ad0f82edae1e07a9be6544d3e9]
link loginAxios to request_port.enum--><path d="M1465.49,733.595 C1478.41,727.388 1494.44,719.141 1508,710.5 C1574.79,667.939 1646.59,607.775 1681.49,577.488 " fill="none" id="loginAxios-&gt;request_port.enum" style="stroke: #000000; stroke-width: 0.5;"/><polygon fill="#000000" points="1685.56,573.946,1676.1465,576.842,1681.79,577.2304,1681.4016,582.8739,1685.56,573.946" style="stroke: #000000; stroke-width: 0.5;"/><!--MD5=[0b2d4f06dcd13463d3f1bb313ea45d44]
link <b>pages</b> to login_form--><path d="M95.1561,731.5 C151.669,731.5 272.815,731.5 342.093,731.5 " fill="none" id="&lt;b&gt;pages&lt;/b&gt;-&gt;login_form" style="stroke: #000000; stroke-width: 1.0;"/><polygon fill="#000000" points="347.4,731.5,338.4,727.5,342.4,731.5,338.4,735.5,347.4,731.5" style="stroke: #000000; stroke-width: 1.0;"/><!--MD5=[469f0bc641a064de74ead57e74d0c544]
link <b>register</b> to register_form--><path d="M102.5619,601.5 C159.106,601.5 265.839,601.5 333.118,601.5 " fill="none" id="&lt;b&gt;register&lt;/b&gt;-&gt;register_form" style="stroke: #000000; stroke-width: 1.0;"/><polygon fill="#000000" points="338.294,601.5,329.294,597.5,333.294,601.5,329.294,605.5,338.294,601.5" style="stroke: #000000; stroke-width: 1.0;"/><!--MD5=[8e18ffa420d63e5345b38a4c96821540]
link register_form to register_form.css--><path d="M448.33,597.776 C507.742,593.589 604.351,586.779 669.016,582.221 " fill="none" id="register_form-&gt;register_form.css" style="stroke: #000000; stroke-width: 0.5;"/><polygon fill="#000000" points="674.393,581.842,665.1342,578.4843,669.4054,582.1934,665.6963,586.4646,674.393,581.842" style="stroke: #000000; stroke-width: 0.5;"/><!--MD5=[01937e45121a585f1702d1c661f1856c]
link register_form to use_register_hooks--><path d="M449.8,603.9 C547.761,608.23 754.132,617.351 864.76,622.241 " fill="none" id="register_form-&gt;use_register_hooks" style="stroke: #000000; stroke-width: 0.5;"/><polygon fill="#000000" points="869.955,622.47,861.1397,618.0779,864.9598,622.25,860.7877,626.0702,869.955,622.47" style="stroke: #000000; stroke-width: 0.5;"/><!--MD5=[40904a2d8d850660596a12712f8fbb7d]
link registerAxios to request_port.enum--><path d="M1477.04,623.307 C1523.17,610.076 1603.84,586.94 1655.27,572.189 " fill="none" id="registerAxios-&gt;request_port.enum" style="stroke: #000000; stroke-width: 0.5;"/><polygon fill="#000000" points="1660.16,570.788,1650.4079,569.4106,1655.3518,572.1597,1652.6027,577.1036,1660.16,570.788" style="stroke: #000000; stroke-width: 0.5;"/><!--MD5=[8a60bf94dd89b6b4251f72c46aa02585]
link socket_instance to request_port.enum--><path d="M1481.22,494.891 C1527.77,508.242 1604.88,530.359 1654.81,544.679 " fill="none" id="socket_instance-&gt;request_port.enum" style="stroke: #000000; stroke-width: 0.5;"/><polygon fill="#000000" points="1659.86,546.126,1652.3032,539.8098,1655.0519,544.7539,1650.1078,547.5027,1659.86,546.126" style="stroke: #000000; stroke-width: 0.5;"/><!--MD5=[0dcb7b8c2fa2d308f68fe4d077f8ab85]
link use_login_hooks to loginAxios--><path d="M1003.952,753.228 C1104.94,751.205 1300.08,747.294 1390.86,745.475 " fill="none" id="use_login_hooks-&gt;loginAxios" style="stroke: #000000; stroke-width: 0.5;"/><polygon fill="#000000" points="1395.9,745.374,1386.8218,741.5548,1390.901,745.474,1386.9818,749.5532,1395.9,745.374" style="stroke: #000000; stroke-width: 0.5;"/><!--MD5=[da0b2c3e54d4bf67b8c76cedf5141ec7]
link use_login_hooks to path.enum--><path d="M1000.691,759.687 C1100.93,768.324 1300.06,785.484 1391.52,793.366 " fill="none" id="use_login_hooks-&gt;path.enum" style="stroke: #000000; stroke-width: 0.5;"/><polygon fill="#000000" points="1396.59,793.803,1387.966,789.0463,1391.6084,793.3744,1387.2803,797.0168,1396.59,793.803" style="stroke: #000000; stroke-width: 0.5;"/><!--MD5=[bd03e80f4c0370c0b3d1c467be478ebf]
link use_login_hooks to validate_id--><path d="M994.613,746.396 C1019.67,742.688 1049.84,738.288 1077,734.5 C1190.37,718.69 1323.86,701.34 1392.9,692.462 " fill="none" id="use_login_hooks-&gt;validate_id" style="stroke: #000000; stroke-width: 0.5;"/><polygon fill="#000000" points="1398.16,691.785,1388.7284,688.9486,1393.1997,692.4138,1389.7345,696.8851,1398.16,691.785" style="stroke: #000000; stroke-width: 0.5;"/><!--MD5=[b309d4ed393674c878677eb928688844]
link use_register_hooks to registerAxios--><path d="M1009.88,626.612 C1108.44,628.192 1287.3,631.06 1380.08,632.547 " fill="none" id="use_register_hooks-&gt;registerAxios" style="stroke: #000000; stroke-width: 0.5;"/><polygon fill="#000000" points="1385.25,632.63,1376.3081,628.5018,1380.2505,632.5586,1376.1938,636.501,1385.25,632.63" style="stroke: #000000; stroke-width: 0.5;"/><!--MD5=[37271f5da38516f65edf7ff24895b8b4]
link use_register_hooks to validate_id--><path d="M1002.439,633.072 C1103.75,645.457 1302.65,669.771 1392.94,680.809 " fill="none" id="use_register_hooks-&gt;validate_id" style="stroke: #000000; stroke-width: 0.5;"/><polygon fill="#000000" points="1397.95,681.42,1389.5093,676.345,1392.9878,680.806,1388.5269,684.2845,1397.95,681.42" style="stroke: #000000; stroke-width: 0.5;"/><!--MD5=[69535f561f2b62def0423d5da9b03228]
link use_register_hooks to validate_password--><path d="M1004.716,619.219 C1027.53,617.031 1053.41,614.6 1077,612.5 C1179.43,603.384 1298.22,593.727 1371.12,587.905 " fill="none" id="use_register_hooks-&gt;validate_password" style="stroke: #000000; stroke-width: 0.5;"/><polygon fill="#000000" points="1376.29,587.493,1366.9989,584.2258,1371.306,587.893,1367.6388,592.2001,1376.29,587.493" style="stroke: #000000; stroke-width: 0.5;"/><!--MD5=[1454d87463416d12e7738f9bd0e20376]
link use_socket_messages_hook to get_cookie--><path d="M1023.48,374.036 C1089.18,365.752 1178.66,354.468 1233.14,347.599 " fill="none" id="use_socket_messages_hook-&gt;get_cookie" style="stroke: #000000; stroke-width: 0.5;"/><polygon fill="#000000" points="1238.3,346.948,1228.8767,344.0842,1233.3379,347.5624,1229.8597,352.0236,1238.3,346.948" style="stroke: #000000; stroke-width: 0.5;"/><!--MD5=[17d6c73d9111d1330a27ecb896f3850a]
link use_socket_messages_hook to _socket_context--><path d="M1035.24,384.88 C1136.99,385.288 1295.49,385.923 1380.65,386.264 " fill="none" id="use_socket_messages_hook-&gt;_socket_context" style="stroke: #000000; stroke-width: 0.5;"/><polygon fill="#000000" points="1385.9,386.285,1376.9115,382.2593,1380.9,386.2707,1376.8886,390.2593,1385.9,386.285" style="stroke: #000000; stroke-width: 0.5;"/><!--MD5=[5c25152a290ddde0a88d2b7e0543e2c3]
link <b>_app</b> to <b>_document</b>--><!--MD5=[a49b6d9fef720536b00986ba2df0c6e2]
link <b>_document</b> to <b>babel.config</b>--><!--MD5=[8da7a4fd084b6d3877f9d8c5f8139090]
link <b>babel.config</b> to <b>hello</b>--><!--MD5=[d090cc50fcd5a0980d17b8928f7713ec]
link <b>_app</b> to <b>jest.config</b>--><!--MD5=[2f3ecd742963b53f68b33a35529b1d20]
link <b>jest.config</b> to <b>jest.setup</b>--><!--MD5=[06576d4afd1a6d0507add8054c299dd9]
link <b>jest.setup</b> to _long_polling--><!--MD5=[ac6f9548b7124cc7ef31523874836f4f]
link _long_polling to <b>middleware</b>--><!--MD5=[12459f1e888e0cff0b5cf7c3796ceaa0]
link <b>jest.config</b> to <b>next-env.d</b>--><!--MD5=[2214b608778e02bdba7328d296f47cb9]
link <b>next-env.d</b> to <b>socket_client</b>--><!--MD5=[36fe648cbd2d15659c8919b5bc215004]
link <b>socket_client</b> to <b>socket/socket</b>--><script type="text/plantuml"><![CDATA[MD5=[baa8a95b21cf004b7164a18498b60589]
@startuml

scale max 1920 width
left to right direction

skinparam nodesep 21
skinparam ranksep 42
skinparam monochrome true
skinparam shadowing false
skinparam defaultFontName Tahoma
skinparam defaultFontSize 12
skinparam roundCorner 6
skinparam dpi 150
skinparam arrowColor black
skinparam arrowThickness 0.5
skinparam packageTitleAlignment left

skinparam usecase {
  borderThickness 0.5
}

skinparam rectangle {
  borderThickness 0.5
}

skinparam component {
  borderThickness 1
}


(<b>_app</b>)
(<b>_document</b>)
(<b>api/socket</b>)
(<b>babel.config</b>)
(get_cookie)
(<b>hello</b>)
(<b>instance</b>)
(<b>jest.config</b>)
(<b>jest.setup</b>)
(<b>letter</b>)
(letter_composer)
(letter_content)
(letter_header)
(letter_header.css)
(letter_main)
rectangle "letter_main.css" as _letter_main_css
(<b>letter_page</b>)
(letter_provider)
(<b>login</b>)
(login_form)
(login_form.css)
(loginAxios)
rectangle "<b>long_polling</b>" as _long_polling
(<b>middleware</b>)
(<b>next-env.d</b>)
(<b>pages</b>)
(path.enum)
(received_letter_viewer)
(received_letters_button)
(<b>register</b>)
(register_form)
(register_form.css)
(registerAxios)
(request_port.enum)
(<b>socket_client</b>)
rectangle "socket_context" as _socket_context
(socket_instance)
(<b>socket/socket</b>)
(use_letter_hooks)
(use_login_hooks)
(use_register_hooks)
(use_socket_messages_hook)
(validate_id)
(validate_password)


(<b>api/socket</b>) ----[thickness=1]> (socket_instance)
(<b>instance</b>) ----[thickness=1]> (request_port.enum)
(<b>letter</b>) ---[thickness=1]> (letter_composer)
(<b>letter</b>) ---[thickness=1]> (received_letter_viewer)
(<b>letter</b>) ---[thickness=1]> (received_letters_button)
(letter_header) ---> (letter_header.css)
(letter_main) --> (letter_content)
(letter_main) ---> _letter_main_css
(letter_main) --> _socket_context
(letter_main) ----> (use_letter_hooks)
(letter_main) ----> (use_socket_messages_hook)
(<b>letter_page</b>) ---[thickness=1]> (letter_header)
(<b>letter_page</b>) ---[thickness=1]> (letter_main)
(<b>letter_page</b>) ---[thickness=1]> (letter_provider)
(letter_provider) --> _socket_context
(<b>login</b>) ---[thickness=1]> (login_form)
(login_form) ---> (login_form.css)
(login_form) ----> (use_login_hooks)
(loginAxios) ----> (request_port.enum)
(<b>pages</b>) ---[thickness=1]> (login_form)
(<b>register</b>) ---[thickness=1]> (register_form)
(register_form) ---> (register_form.css)
(register_form) ----> (use_register_hooks)
(registerAxios) ----> (request_port.enum)
(socket_instance) ----> (request_port.enum)
(use_login_hooks) ----> (loginAxios)
(use_login_hooks) ----> (path.enum)
(use_login_hooks) ----> (validate_id)
(use_register_hooks) ----> (registerAxios)
(use_register_hooks) ----> (validate_id)
(use_register_hooks) ----> (validate_password)
(use_socket_messages_hook) ---> (get_cookie)
(use_socket_messages_hook) ----> _socket_context

@enduml


' View and edit on https://arkit.pro
]]></script></g></svg>