{
	"asset":{
		"generator":"Khronos glTF Blender I/O v4.2.57",
		"version":"2.0"
	},
	"scene":0,
	"scenes":[
		{
			"name":"Scene",
			"nodes":[
				3,
				4
			]
		}
	],
	"nodes":[
		{
			"mesh":0,
			"name":"Object_3"
		},
		{
			"mesh":1,
			"name":"Object_4"
		},
		{
			"children":[
				0,
				1
			],
			"name":"970be17c1f86401bb41b995f8c8fedad.obj.cleaner.materialmerger.gle"
		},
		{
			"children":[
				2
			],
			"name":"Sketchfab_model",
			"rotation":[
				-0.70710688829422,
				0,
				0,
				0.7071066498756409
			]
		},
		{
			"name":"970be17c1f86401bb41b995f8c8fedad.obj.cleaner.materialmerger"
		}
	],
	"materials":[
		{
			"doubleSided":true,
			"name":"lambert3SG",
			"normalTexture":{
				"index":0
			},
			"pbrMetallicRoughness":{
				"baseColorTexture":{
					"index":1
				},
				"metallicFactor":0,
				"roughnessFactor":0.6000000238418579
			}
		},
		{
			"alphaMode":"BLEND",
			"doubleSided":true,
			"name":"phong1SG",
			"pbrMetallicRoughness":{
				"baseColorFactor":[
					0.007153465878218412,
					0.028140319511294365,
					0.005937316454946995,
					0.6602514982223511
				],
				"metallicFactor":0,
				"roughnessFactor":0
			}
		}
	],
	"meshes":[
		{
			"name":"Object_1",
			"primitives":[
				{
					"attributes":{
						"POSITION":0,
						"NORMAL":1,
						"TEXCOORD_0":2
					},
					"indices":3,
					"material":0
				}
			]
		},
		{
			"name":"Object_2",
			"primitives":[
				{
					"attributes":{
						"POSITION":4,
						"NORMAL":5,
						"TEXCOORD_0":6
					},
					"indices":7,
					"material":1
				}
			]
		}
	],
	"textures":[
		{
			"sampler":0,
			"source":0
		},
		{
			"sampler":0,
			"source":1
		}
	],
	"images":[
		{
			"mimeType":"image/png",
			"name":"lambert3SG_normal",
			"uri":"lambert3SG_normal.png"
		},
		{
			"mimeType":"image/png",
			"name":"lambert3SG_baseColor",
			"uri":"lambert3SG_baseColor.png"
		}
	],
	"accessors":[
		{
			"bufferView":0,
			"componentType":5126,
			"count":129,
			"max":[
				0.12250600010156631,
				0.12949199974536896,
				1.6334550380706787
			],
			"min":[
				-0.12250600010156631,
				-0.10937800258398056,
				1.1834110021591187
			],
			"type":"VEC3"
		},
		{
			"bufferView":1,
			"componentType":5126,
			"count":129,
			"type":"VEC3"
		},
		{
			"bufferView":2,
			"componentType":5126,
			"count":129,
			"type":"VEC2"
		},
		{
			"bufferView":3,
			"componentType":5123,
			"count":576,
			"type":"SCALAR"
		},
		{
			"bufferView":4,
			"componentType":5126,
			"count":379,
			"max":[
				0.35555601119995117,
				0.3648329973220825,
				1.5034680366516113
			],
			"min":[
				-0.35555601119995117,
				-0.34627801179885864,
				-1.5025639533996582
			],
			"type":"VEC3"
		},
		{
			"bufferView":5,
			"componentType":5126,
			"count":379,
			"type":"VEC3"
		},
		{
			"bufferView":6,
			"componentType":5126,
			"count":379,
			"type":"VEC2"
		},
		{
			"bufferView":7,
			"componentType":5123,
			"count":2100,
			"type":"SCALAR"
		}
	],
	"bufferViews":[
		{
			"buffer":0,
			"byteLength":1548,
			"byteOffset":0,
			"target":34962
		},
		{
			"buffer":0,
			"byteLength":1548,
			"byteOffset":1548,
			"target":34962
		},
		{
			"buffer":0,
			"byteLength":1032,
			"byteOffset":3096,
			"target":34962
		},
		{
			"buffer":0,
			"byteLength":1152,
			"byteOffset":4128,
			"target":34963
		},
		{
			"buffer":0,
			"byteLength":4548,
			"byteOffset":5280,
			"target":34962
		},
		{
			"buffer":0,
			"byteLength":4548,
			"byteOffset":9828,
			"target":34962
		},
		{
			"buffer":0,
			"byteLength":3032,
			"byteOffset":14376,
			"target":34962
		},
		{
			"buffer":0,
			"byteLength":4200,
			"byteOffset":17408,
			"target":34963
		}
	],
	"samplers":[
		{
			"magFilter":9729,
			"minFilter":9987
		}
	],
	"buffers":[
		{
			"byteLength":21608,
			"uri":"empty_bottle.bin"
		}
	]
}
