{
  "accessors": [
    {
      "bufferView": 2,
      "componentType": 5126,
      "count": 727,
      "max": [
        0.3529520034790039,
        0.1988449990749359,
        0.6141149997711182
      ],
      "min": [
        -0.22531799972057343,
        -0.09280099719762802,
        -1.1851890087127686
      ],
      "type": "VEC3"
    },
    {
      "bufferView": 2,
      "byteOffset": 8724,
      "componentType": 5126,
      "count": 727,
      "max": [
        0.9868268966674805,
        0.9999989867210388,
        0.9986850023269653
      ],
      "min": [
        -0.9951403737068176,
        -0.9999935030937195,
        -0.9951469898223877
      ],
      "type": "VEC3"
    },
    {
      "bufferView": 3,
      "componentType": 5126,
      "count": 727,
      "max": [
        0.9948080778121948,
        0.9996296763420105,
        0.9982677102088928,
        1.0
      ],
      "min": [
        -0.9251412153244019,
        -0.9996230006217957,
        -0.9928049445152283,
        1.0
      ],
      "type": "VEC4"
    },
    {
      "bufferView": 1,
      "componentType": 5126,
      "count": 727,
      "max": [
        0.9951480031013489,
        0.9980000257492065
      ],
      "min": [
        0.0020000000949949026,
        0.0020000000949949026
      ],
      "type": "VEC2"
    },
    {
      "bufferView": 0,
      "componentType": 5125,
      "count": 3420,
      "type": "SCALAR"
    },
    {
      "bufferView": 2,
      "byteOffset": 17448,
      "componentType": 5126,
      "count": 129,
      "max": [
        0.12250600010156631,
        0.12949199974536896,
        1.6334550380706787
      ],
      "min": [
        -0.12250600010156631,
        -0.10937800258398056,
        1.1834110021591187
      ],
      "type": "VEC3"
    },
    {
      "bufferView": 2,
      "byteOffset": 18996,
      "componentType": 5126,
      "count": 129,
      "max": [
        0.9930860996246338,
        0.969742476940155,
        0.9999101161956787
      ],
      "min": [
        -0.9930860996246338,
        -0.969742476940155,
        -0.993989884853363
      ],
      "type": "VEC3"
    },
    {
      "bufferView": 3,
      "byteOffset": 11632,
      "componentType": 5126,
      "count": 129,
      "max": [
        0.9992496967315674,
        0.9999924302101135,
        0.861478865146637,
        1.0
      ],
      "min": [
        -0.9993281960487366,
        -0.9985764622688293,
        -0.735016405582428,
        1.0
      ],
      "type": "VEC4"
    },
    {
      "bufferView": 1,
      "byteOffset": 5816,
      "componentType": 5126,
      "count": 129,
      "max": [
        0.8552560210227966,
        0.7883189916610718
      ],
      "min": [
        0.13172100484371185,
        0.2743139863014221
      ],
      "type": "VEC2"
    },
    {
      "bufferView": 0,
      "byteOffset": 13680,
      "componentType": 5125,
      "count": 576,
      "type": "SCALAR"
    },
    {
      "bufferView": 2,
      "byteOffset": 20544,
      "componentType": 5126,
      "count": 379,
      "max": [
        0.35555601119995117,
        0.3648329973220825,
        1.5034680366516113
      ],
      "min": [
        -0.35555601119995117,
        -0.34627801179885864,
        -1.5025639533996582
      ],
      "type": "VEC3"
    },
    {
      "bufferView": 2,
      "byteOffset": 25092,
      "componentType": 5126,
      "count": 379,
      "max": [
        1.0,
        1.0,
        0.7682186365127563
      ],
      "min": [
        -1.0,
        -1.0,
        -1.0
      ],
      "type": "VEC3"
    },
    {
      "bufferView": 1,
      "byteOffset": 6848,
      "componentType": 5126,
      "count": 379,
      "max": [
        0.8371530175209045,
        0.9357069730758667
      ],
      "min": [
        0.038033999502658844,
        0.14641499519348145
      ],
      "type": "VEC2"
    },
    {
      "bufferView": 0,
      "byteOffset": 15984,
      "componentType": 5125,
      "count": 2100,
      "type": "SCALAR"
    }
  ],
  "asset": {
    "extras": {
      "author": "Marcus Vinicius (https://sketchfab.com/ramosmarcus17)",
      "license": "CC-BY-4.0 (http://creativecommons.org/licenses/by/4.0/)",
      "source": "https://sketchfab.com/3d-models/bottle-with-scroll-1b20457597f44190a5ed24f68050fada",
      "title": "Bottle with scroll"
    },
    "generator": "Sketchfab-12.68.0",
    "version": "2.0"
  },
  "bufferViews": [
    {
      "buffer": 0,
      "byteLength": 24384,
      "name": "floatBufferViews",
      "target": 34963
    },
    {
      "buffer": 0,
      "byteLength": 9880,
      "byteOffset": 24384,
      "byteStride": 8,
      "name": "floatBufferViews",
      "target": 34962
    },
    {
      "buffer": 0,
      "byteLength": 29640,
      "byteOffset": 34264,
      "byteStride": 12,
      "name": "floatBufferViews",
      "target": 34962
    },
    {
      "buffer": 0,
      "byteLength": 13696,
      "byteOffset": 63904,
      "byteStride": 16,
      "name": "floatBufferViews",
      "target": 34962
    }
  ],
  "buffers": [
    {
      "byteLength": 77600,
      "uri": "scene.bin"
    }
  ],
  "images": [
    {
      "uri": "textures/Scroll_LPSG_baseColor.png"
    },
    {
      "uri": "textures/Scroll_LPSG_normal.png"
    },
    {
      "uri": "textures/lambert3SG_baseColor.png"
    },
    {
      "uri": "textures/lambert3SG_normal.png"
    }
  ],
  "materials": [
    {
      "alphaMode": "BLEND",
      "doubleSided": true,
      "name": "Scroll_LPSG",
      "normalTexture": {
        "index": 1
      },
      "pbrMetallicRoughness": {
        "baseColorTexture": {
          "index": 0
        },
        "metallicFactor": 0.0,
        "roughnessFactor": 0.6
      }
    },
    {
      "doubleSided": true,
      "name": "lambert3SG",
      "normalTexture": {
        "index": 3
      },
      "pbrMetallicRoughness": {
        "baseColorTexture": {
          "index": 2
        },
        "metallicFactor": 0.0,
        "roughnessFactor": 0.6
      }
    },
    {
      "alphaMode": "BLEND",
      "doubleSided": true,
      "name": "phong1SG",
      "pbrMetallicRoughness": {
        "baseColorFactor": [
          0.007153466105136892,
          0.028140319147626602,
          0.005937316330253898,
          0.6602515244
        ],
        "metallicFactor": 0.0,
        "roughnessFactor": 0.0
      }
    }
  ],
  "meshes": [
    {
      "name": "Object_0",
      "primitives": [
        {
          "attributes": {
            "NORMAL": 1,
            "POSITION": 0,
            "TANGENT": 2,
            "TEXCOORD_0": 3
          },
          "indices": 4,
          "material": 0,
          "mode": 4
        }
      ]
    },
    {
      "name": "Object_1",
      "primitives": [
        {
          "attributes": {
            "NORMAL": 6,
            "POSITION": 5,
            "TANGENT": 7,
            "TEXCOORD_0": 8
          },
          "indices": 9,
          "material": 1,
          "mode": 4
        }
      ]
    },
    {
      "name": "Object_2",
      "primitives": [
        {
          "attributes": {
            "NORMAL": 11,
            "POSITION": 10,
            "TEXCOORD_0": 12
          },
          "indices": 13,
          "material": 2,
          "mode": 4
        }
      ]
    }
  ],
  "nodes": [
    {
      "children": [
        1
      ],
      "matrix": [
        1.0,
        0.0,
        0.0,
        0.0,
        0.0,
        2.220446049250313e-16,
        -1.0,
        0.0,
        0.0,
        1.0,
        2.220446049250313e-16,
        0.0,
        0.0,
        0.0,
        0.0,
        1.0
      ],
      "name": "Sketchfab_model"
    },
    {
      "children": [
        2,
        3,
        4
      ],
      "name": "970be17c1f86401bb41b995f8c8fedad.obj.cleaner.materialmerger.gles"
    },
    {
      "mesh": 0,
      "name": "Object_2"
    },
    {
      "mesh": 1,
      "name": "Object_3"
    },
    {
      "mesh": 2,
      "name": "Object_4"
    }
  ],
  "samplers": [
    {
      "magFilter": 9729,
      "minFilter": 9987,
      "wrapS": 10497,
      "wrapT": 10497
    }
  ],
  "scene": 0,
  "scenes": [
    {
      "name": "Sketchfab_Scene",
      "nodes": [
        0
      ]
    }
  ],
  "textures": [
    {
      "sampler": 0,
      "source": 0
    },
    {
      "sampler": 0,
      "source": 1
    },
    {
      "sampler": 0,
      "source": 2
    },
    {
      "sampler": 0,
      "source": 3
    }
  ]
}
